<svg width="134" height="56" viewBox="0 0 134 56" fill="none" xmlns="http://www.w3.org/2000/svg">
<path d="M123.118 5.75685C124.273 3.91994 125.807 2.35146 127.618 1.15685C128.618 0.456854 129.218 0.456854 129.818 1.75685C130.618 3.65685 131.318 5.65685 130.718 7.75685C130.609 8.11302 130.589 8.49045 130.658 8.85639C130.728 9.22234 130.886 9.56575 131.118 9.85685C131.718 10.6569 132.218 11.4569 132.718 12.1569C133.399 13.0206 133.84 14.0482 133.998 15.1364C134.156 16.2246 134.025 17.3352 133.618 18.3569C133.251 19.3487 133.182 20.4261 133.418 21.4569C133.618 22.4469 133.618 23.4668 133.418 24.4569C133.337 25.1983 133.037 25.8987 132.556 26.4688C132.076 27.0388 131.436 27.4524 130.718 27.6569C129.439 27.9002 128.298 28.6137 127.518 29.6569C127.424 29.8105 127.291 29.9372 127.134 30.0247C126.976 30.1123 126.799 30.1578 126.618 30.1569C125.418 30.3569 122.418 27.6569 122.418 26.4569V25.8569C122.518 22.2569 122.318 21.9569 119.018 20.4569C118.328 20.2133 117.709 19.8007 117.218 19.2569C116.618 18.4569 115.818 18.5569 114.918 18.8569C114.018 19.1569 113.518 19.7569 113.618 20.7569C113.92 23.1777 114.02 25.6194 113.918 28.0569C113.925 28.335 113.993 28.6083 114.118 28.8569C117.218 33.3569 118.418 38.6569 119.918 43.7569C121.118 47.6569 123.318 49.7569 127.318 50.0569C127.958 50.1079 128.594 50.2082 129.218 50.3569C130.04 50.4889 130.803 50.8644 131.41 51.4349C132.016 52.0054 132.437 52.7445 132.618 53.5569C133.318 55.6569 132.918 56.1569 130.818 56.1569H124.318C123.477 56.1994 122.652 55.9124 122.018 55.3569C121.006 54.5027 119.857 53.8265 118.618 53.3569C117.249 52.8516 116.065 51.9455 115.218 50.7569C114.047 49.1203 112.706 47.612 111.218 46.2569C108.418 43.3569 105.418 40.5569 102.818 37.5569C100.839 35.5127 99.6973 32.8012 99.6183 29.9569C99.6183 29.0569 99.4183 28.6569 98.4183 29.0569C98.1189 29.2468 97.7729 29.3506 97.4183 29.3569C94.6183 29.3569 93.2183 31.0569 92.2183 33.5569C91.3183 35.6569 90.1183 37.6569 89.0183 39.7569C88.3945 41.0714 88.0539 42.5023 88.0183 43.9569C88.0183 46.3569 88.6183 47.1569 90.8183 47.9569C92.2183 48.4569 93.5183 48.9569 94.2183 50.3569C95.0183 51.9569 94.8183 52.3569 93.1183 52.4569H86.3183C85.9263 52.4957 85.532 52.4104 85.191 52.213C84.8501 52.0156 84.5798 51.7162 84.4183 51.3569L82.6183 48.3569C82.0877 47.5741 81.748 46.6779 81.6264 45.7401C81.5049 44.8023 81.6048 43.849 81.9183 42.9569C82.3511 41.2204 82.3853 39.4084 82.0183 37.6569C81.7662 36.437 81.7879 35.1764 82.0819 33.9659C82.3759 32.7554 82.9348 31.6252 83.7183 30.6569C84.3183 29.9569 84.3183 29.6569 83.3183 29.4569C79.2292 28.5882 75.265 27.2108 71.5183 25.3569C71.4918 25.3569 71.4663 25.3463 71.4476 25.3276C71.4288 25.3088 71.4183 25.2834 71.4183 25.2569C68.2183 24.0569 67.6183 24.2569 66.7183 27.5569C65.9183 30.3569 65.1183 33.1569 64.5183 36.0569C63.8183 39.2569 64.6183 42.2569 65.6183 45.2569C66.0183 46.4569 67.2183 46.3569 68.1183 46.6569C70.1183 47.2569 71.8183 48.0569 72.6183 50.1569C73.3183 51.7569 73.2183 51.9569 71.5183 51.9569C69.8183 51.9569 68.1183 51.8569 66.3183 51.9569C64.7994 51.9844 63.3169 51.4902 62.1183 50.5569C57.3183 47.3569 55.9183 42.4569 55.5183 37.1569C55.3183 33.8569 53.5183 31.2569 51.4183 28.7569C51.0183 28.2569 50.6183 28.0569 50.0183 28.4569C47.8718 29.6404 45.6307 30.6439 43.3183 31.4569C38.4925 33.1608 34.2579 36.2153 31.1183 40.2569C29.9459 41.7318 29.1867 43.4919 28.9183 45.3569C28.6183 47.1569 29.1183 47.9569 30.9183 48.4569C32.7183 48.9569 33.6183 49.9569 33.8183 51.8569C33.9183 52.6569 33.6183 53.0569 32.8183 53.0569H24.7183C24.4532 53.0381 24.1966 52.9555 23.9702 52.8162C23.7439 52.6769 23.5545 52.485 23.4183 52.2569C22.1621 50.7016 21.4899 48.7558 21.5183 46.7569C21.4658 43.3018 21.7674 39.8505 22.4183 36.4569C22.5518 35.4405 22.9312 34.4721 23.5237 33.6357C24.1162 32.7992 24.9038 32.12 25.8183 31.6569C31.7183 28.8569 34.8183 23.5569 37.6183 18.0569C38.2183 16.9569 37.7183 16.7569 36.7183 16.8569C33.9196 17.2454 31.268 18.3474 29.0183 20.0569C26.0725 22.2057 23.2975 24.5795 20.7183 27.1569C17.9679 29.9505 14.321 31.6855 10.4183 32.0569C3.11829 32.4569 -0.281709 28.3569 0.018291 21.7569C0.0853535 19.5065 0.933938 17.3496 2.41829 15.6569C2.93431 14.9879 3.63802 14.4878 4.43956 14.2207C5.24109 13.9535 6.10407 13.9313 6.91829 14.1569C8.41829 14.5569 8.81829 15.3569 8.21829 16.8569C7.91829 17.4569 7.51829 17.9569 7.21829 18.5569C6.78689 19.1698 6.44981 19.844 6.21829 20.5569C5.11829 23.5569 6.61829 25.6569 9.71829 25.9569C13.0183 26.2569 15.7183 24.8569 18.2183 22.8569C21.2302 20.4451 23.919 17.6555 26.2183 14.5569C27.9375 12.2943 30.1024 10.4081 32.5791 9.01498C35.0559 7.62182 37.7919 6.75118 40.6183 6.45685C42.9183 6.15685 44.9183 5.15685 47.1183 4.55685C51.2328 3.30246 55.5173 2.69521 59.8183 2.75685C61.8104 2.83982 63.7949 2.46345 65.6183 1.65685C70.5183 -0.343146 75.6183 -0.343146 80.7183 0.656854C84.7183 1.45685 88.7183 2.45685 92.6183 3.45685C94.9392 3.88933 97.3258 3.82114 99.6183 3.25685C104.007 2.14439 108.496 1.47438 113.018 1.25685C115.981 1.11272 118.933 1.69639 121.618 2.95685C123.618 3.85685 123.618 3.85685 123.118 5.75685Z" fill="black"/>
</svg>
