<svg width="50" height="53" viewBox="0 0 50 53" fill="none" xmlns="http://www.w3.org/2000/svg">
<circle cx="25" cy="26" r="25" fill="#68B738"/>
<path d="M44.0813 18.2551C44.4946 17.5356 45.044 16.9211 45.6925 16.4532C46.0505 16.179 46.2653 16.179 46.4802 16.6882C46.7666 17.4325 47.0172 18.216 46.8024 19.0386C46.7633 19.1781 46.7559 19.326 46.7809 19.4693C46.8058 19.6127 46.8624 19.7472 46.9456 19.8612C47.1604 20.1746 47.3394 20.488 47.5185 20.7622C47.7621 21.1006 47.9202 21.5031 47.9767 21.9294C48.0333 22.3557 47.9864 22.7908 47.8407 23.1909C47.7093 23.5795 47.6844 24.0015 47.7691 24.4053C47.8407 24.7931 47.8407 25.1927 47.7691 25.5805C47.7402 25.8709 47.6327 26.1453 47.4605 26.3686C47.2883 26.5919 47.0592 26.754 46.8024 26.834C46.3444 26.9294 45.9357 27.2089 45.6567 27.6175C45.6228 27.6777 45.5754 27.7273 45.519 27.7616C45.4625 27.7959 45.399 27.8137 45.3344 27.8134C44.9048 27.8917 43.8307 26.834 43.8307 26.364V26.1289C43.8665 24.7187 43.7948 24.6012 42.6133 24.0136C42.366 23.9182 42.1445 23.7566 41.9688 23.5435C41.754 23.2301 41.4676 23.2693 41.1454 23.3868C40.8231 23.5043 40.6441 23.7394 40.6799 24.1311C40.7879 25.0794 40.8238 26.0359 40.7873 26.9907C40.7897 27.0997 40.8141 27.2067 40.8589 27.3041C41.9688 29.0669 42.3985 31.1431 42.9356 33.1409C43.3652 34.6687 44.1529 35.4913 45.585 35.6088C45.8142 35.6288 46.0417 35.6681 46.2653 35.7263C46.5596 35.7781 46.8329 35.9252 47.0499 36.1486C47.2669 36.3721 47.4177 36.6617 47.4827 36.9799C47.7333 37.8025 47.5901 37.9984 46.8382 37.9984H44.5109C44.2096 38.015 43.9142 37.9026 43.6874 37.685C43.3251 37.3504 42.9134 37.0855 42.4701 36.9015C41.98 36.7036 41.5558 36.3487 41.2528 35.883C40.8334 35.242 40.3533 34.6511 39.8206 34.1202C38.8181 32.9842 37.744 31.8874 36.8131 30.7122C36.1044 29.9114 35.6956 28.8492 35.6673 27.735C35.6673 27.3825 35.5957 27.2258 35.2377 27.3825C35.1305 27.4569 35.0066 27.4975 34.8796 27.5C33.8771 27.5 33.3759 28.1659 33.0178 29.1453C32.6956 29.9679 32.266 30.7514 31.8721 31.574C31.6488 32.0889 31.5268 32.6495 31.5141 33.2193C31.5141 34.1594 31.7289 34.4728 32.5166 34.7862C33.0178 34.9821 33.4833 35.1779 33.7339 35.7263C34.0203 36.3531 33.9487 36.5098 33.3401 36.549H30.9054C30.765 36.5642 30.6239 36.5308 30.5018 36.4535C30.3797 36.3761 30.283 36.2588 30.2251 36.1181L29.5806 34.9429C29.3907 34.6362 29.2691 34.2852 29.2255 33.9178C29.182 33.5504 29.2178 33.177 29.33 32.8275C29.485 32.1473 29.4972 31.4375 29.3658 30.7514C29.2756 30.2735 29.2834 29.7797 29.3886 29.3055C29.4939 28.8313 29.694 28.3886 29.9745 28.0092C30.1893 27.735 30.1893 27.6175 29.8313 27.5392C28.3672 27.1989 26.9479 26.6593 25.6064 25.9331C25.5969 25.9331 25.5878 25.9289 25.5811 25.9216C25.5744 25.9142 25.5706 25.9043 25.5706 25.8939C24.4249 25.4238 24.21 25.5022 23.8878 26.7949C23.6014 27.8917 23.3149 28.9886 23.1001 30.1246C22.8495 31.3781 23.1359 32.5533 23.494 33.7285C23.6372 34.1986 24.0668 34.1594 24.3891 34.2769C25.1051 34.512 25.7138 34.8254 26.0002 35.648C26.2509 36.2748 26.2151 36.3531 25.6064 36.3531C24.9977 36.3531 24.3891 36.3139 23.7446 36.3531C23.2008 36.3639 22.67 36.1703 22.2408 35.8047C20.5222 34.5511 20.021 32.6317 19.8778 30.5555C19.8062 29.2628 19.1617 28.2443 18.4098 27.2649C18.2666 27.0691 18.1234 26.9907 17.9085 27.1474C17.14 27.6111 16.3376 28.0041 15.5097 28.3226C13.7819 28.9901 12.2657 30.1867 11.1416 31.7699C10.7218 32.3477 10.45 33.0371 10.3539 33.7677C10.2465 34.4728 10.4255 34.7862 11.07 34.9821C11.7144 35.1779 12.0367 35.5696 12.1083 36.3139C12.1441 36.6273 12.0367 36.784 11.7502 36.784H8.85012C8.75521 36.7767 8.66332 36.7443 8.58228 36.6898C8.50124 36.6352 8.43345 36.56 8.38467 36.4706C7.93492 35.8614 7.69424 35.0992 7.70439 34.3161C7.6856 32.9627 7.79358 31.6107 8.02663 30.2813C8.07442 29.8832 8.21027 29.5038 8.42241 29.1761C8.63454 28.8485 8.91655 28.5824 9.24397 28.401C11.3564 27.3041 12.4663 25.2279 13.4688 23.0734C13.6837 22.6425 13.5046 22.5642 13.1466 22.6034C12.1446 22.7555 11.1952 23.1872 10.3897 23.8569C9.33497 24.6987 8.34143 25.6285 7.41796 26.6382C6.43322 27.7325 5.12747 28.4122 3.73015 28.5577C1.11645 28.7144 -0.100885 27.1083 0.00652705 24.5228C0.0305381 23.6413 0.334366 22.7964 0.865824 22.1333C1.05058 21.8712 1.30254 21.6753 1.58952 21.5707C1.8765 21.466 2.18548 21.4573 2.477 21.5457C3.01407 21.7024 3.15728 22.0158 2.94246 22.6034C2.83504 22.8384 2.69183 23.0343 2.58442 23.2693C2.42996 23.5094 2.30927 23.7735 2.22638 24.0528C1.83253 25.2279 2.36959 26.0506 3.47952 26.1681C4.66105 26.2856 5.62776 25.7372 6.52286 24.9537C7.60125 24.009 8.56394 22.9162 9.38718 21.7024C10.0027 20.816 10.7778 20.0772 11.6646 19.5314C12.5514 18.9857 13.531 18.6446 14.543 18.5293C15.3665 18.4118 16.0825 18.0201 16.8702 17.7851C18.3434 17.2937 19.8774 17.0558 21.4173 17.0799C22.1306 17.1124 22.8411 16.965 23.494 16.649C25.2484 15.8656 27.0744 15.8656 28.9004 16.2573C30.3325 16.5707 31.7647 16.9624 33.1611 17.3542C33.992 17.5236 34.8465 17.4969 35.6673 17.2758C37.2387 16.84 38.8459 16.5776 40.4651 16.4923C41.5258 16.4359 42.5829 16.6645 43.5442 17.1583C44.2603 17.5108 44.2603 17.5108 44.0813 18.2551Z" fill="black"/>
</svg>
