<svg width="25" height="28" viewBox="0 0 25 28" fill="none" xmlns="http://www.w3.org/2000/svg">
<path d="M24.8437 0.767C24.7434 0.317 24.3647 0 23.9325 0C23.9306 0 23.9287 0 23.9269 0C18.9891 0.033 6.98155 0.916 2.13374 8.38C-0.384387 12.258 -0.600949 17.293 1.48968 23.345C1.50561 23.392 1.53843 23.424 1.55999 23.467C0.8128 25.44 0.523113 26.753 0.515613 26.79C0.406863 27.33 0.730301 27.862 1.23655 27.978C1.30218 27.993 1.3678 28 1.43343 28C1.86561 28 2.25468 27.679 2.34936 27.21C2.36905 27.108 4.7578 16.837 13.2028 10.832C13.6341 10.526 13.7503 9.905 13.4625 9.445C13.1747 8.985 12.5934 8.86 12.1622 9.168C7.37343 12.573 4.42405 17.176 2.68968 20.824C1.44843 16.246 1.77374 12.447 3.67593 9.519C7.41936 3.755 16.2984 2.365 21.6581 2.071C20.505 3.872 19.245 7.174 19.245 13C19.245 16.12 18.4153 18.522 16.7803 20.14C14.1591 22.731 9.90093 22.974 6.78655 22.724C6.26905 22.679 5.81999 23.095 5.78061 23.646C5.74124 24.196 6.12843 24.676 6.64405 24.718C7.26749 24.769 7.93311 24.8 8.62499 24.8C11.7956 24.8 15.4941 24.137 18.0544 21.606C20.0887 19.595 21.12 16.7 21.12 13.001C21.12 3.902 24.3356 1.905 24.3516 1.896C24.7416 1.687 24.9459 1.219 24.8437 0.767Z" fill="white"/>
</svg>
