<svg width="33" height="38" viewBox="0 0 33 38" fill="none" xmlns="http://www.w3.org/2000/svg">
<g clip-path="url(#clip0_302_1165)">
<path d="M6.01176 20.9349V18.6515C12.6312 17.7243 19.3066 17.2752 25.9881 17.3077C25.9881 17.9139 25.9881 18.5302 25.9286 19.1466C27.8278 18.2868 29.8237 17.6691 31.871 17.3077C30.5661 13.8643 28.1885 10.9537 25.1037 9.02354C22.019 7.09338 18.3981 6.25061 14.798 6.62489C11.1979 6.99916 7.81804 8.56974 5.17836 11.095C2.53869 13.6203 0.78541 16.9604 0.188232 20.6015L6.01176 20.9349Z" fill="#FDC305"/>
<path d="M26.9783 24.4813C25.8295 25.7746 25.6017 25.6938 25.6017 27.9671C25.6017 28.8866 25.6017 32.9179 25.6017 37.2423C27.8722 35.7126 29.7361 33.6332 31.0271 31.1896C32.318 28.7461 32.9958 26.0144 32.9999 23.2386C32.9869 22.1869 32.8808 21.1386 32.683 20.1064C30.6311 21.3487 28.7182 22.8157 26.9783 24.4813Z" fill="#FDC305"/>
<path d="M6.29892 25.9866C6.29892 25.9866 2.54532 24.5317 1.15876 24.1376C0.779508 24.0157 0.392293 23.9211 0 23.8547C0.107354 26.7706 0.956315 29.6079 2.4635 32.0879C3.97068 34.5678 6.08426 36.6052 8.59664 37.9999L6.29892 25.9866Z" fill="#FDC305"/>
<path d="M26.0376 17.2975C26.0778 11.7189 25.6137 6.14835 24.651 0.656701C24.651 0.656701 24.5123 -0.646676 23.7695 0.414212C23.1861 1.67529 22.7858 3.01631 22.5811 4.39507C18.3638 4.11799 14.1306 4.23298 9.93371 4.73859C9.1513 2.0207 7.77465 0.757738 7.11108 1.01033C6.44752 1.26292 6.398 4.35465 6.398 4.35465L6.07117 18.6009C12.6883 17.6875 19.3603 17.252 26.0376 17.2975V17.2975Z" fill="#F06351"/>
<path d="M12.2908 14.1453C12.2908 14.0544 13.2812 14.8323 13.6872 15.0748C14.0933 15.3173 14.2914 15.4992 14.2914 15.671C14.2914 15.8427 14.024 16.0145 13.6674 16.0145C13.3109 16.0145 12.7662 15.8932 12.677 15.7417H13.608H13.8952C13.2918 15.2864 12.752 14.7493 12.2908 14.1453V14.1453Z" fill="black"/>
<path d="M19.699 14.2563L18.6195 15.6001C18.6195 15.6607 18.4511 15.9537 18.7978 15.9032C19.208 15.8408 19.6122 15.7428 20.006 15.6102C20.115 15.6102 20.0754 15.4182 19.8971 15.4385C19.7188 15.4587 19.2137 15.489 18.9067 15.5496L19.7386 14.2765C19.7386 14.2765 19.808 14.1452 19.699 14.2563Z" fill="black"/>
<path d="M16.5891 20.4095C17.0482 20.2032 17.4277 19.848 17.6687 19.3991C17.946 18.7424 17.6687 18.4797 17.2329 18.3887C16.6366 18.2778 16.0211 18.4004 15.5096 18.7323C15.1234 19.096 15.1729 19.4597 15.4601 19.7426C15.808 20.0116 16.1873 20.2356 16.5891 20.4095V20.4095Z" fill="black"/>
<path d="M16.193 21.6723C16.082 21.9032 15.9271 22.1093 15.7374 22.2785C15.4553 22.51 15.1086 22.6444 14.747 22.6625C14.2259 22.7049 13.7077 22.5502 13.2911 22.228C13.0953 22.1075 12.9183 21.9577 12.7662 21.7834C12.6667 21.6714 12.5452 21.5819 12.4097 21.5208C12.4097 21.5208 13.1525 25.6633 14.955 26.32C16.7575 26.9767 17.0744 25.5622 17.1339 25.1783C17.1934 24.0317 16.9102 22.8936 16.3217 21.9148C16.3019 21.6016 16.292 21.8037 16.193 21.6723Z" fill="#F06351"/>
<path d="M14.5687 22.8243C14.1085 22.7584 13.6664 22.5971 13.2695 22.3503C12.8727 22.1036 12.5295 21.7767 12.2611 21.3896C12.2479 21.3764 12.2375 21.3607 12.2303 21.3433C12.2232 21.326 12.2195 21.3074 12.2195 21.2886C12.2195 21.2697 12.2232 21.2511 12.2303 21.2338C12.2375 21.2164 12.2479 21.2007 12.2611 21.1875C12.274 21.1741 12.2894 21.1634 12.3064 21.1561C12.3234 21.1488 12.3417 21.1451 12.3601 21.1451C12.3786 21.1451 12.3968 21.1488 12.4139 21.1561C12.4309 21.1634 12.4463 21.1741 12.4592 21.1875C12.9591 21.8889 13.71 22.3609 14.5489 22.501V22.501C14.8774 22.4758 15.1952 22.3709 15.476 22.1952C15.7568 22.0195 15.9924 21.7779 16.1633 21.4906L16.3019 21.2987L16.401 21.5108C16.401 21.5108 16.7674 22.2787 17.3914 22.3191C18.0153 22.3595 18.4313 21.9049 18.9859 21.0259C18.9988 21.0124 19.0142 21.0017 19.0312 20.9944C19.0482 20.9872 19.0665 20.9834 19.0849 20.9834C19.1034 20.9834 19.1216 20.9872 19.1386 20.9944C19.1556 21.0017 19.1711 21.0124 19.184 21.0259C19.216 21.0467 19.2389 21.0793 19.2481 21.1168C19.2574 21.1544 19.2521 21.1942 19.2335 21.2279C18.5996 22.2383 17.9757 22.6829 17.3715 22.6424C17.1418 22.6084 16.9226 22.5216 16.7304 22.3886C16.5383 22.2555 16.3782 22.0798 16.2623 21.8746C16.0675 22.1519 15.8142 22.3812 15.5212 22.5455C15.2281 22.7099 14.9026 22.8051 14.5687 22.8243V22.8243Z" fill="black"/>
<path d="M25.988 19.1163C24.2098 20.7568 22.5328 22.5081 20.9667 24.3601C19.4105 26.2052 17.6527 27.8628 15.7275 29.3008C15.5096 28.7653 14.1231 27.7752 14.1231 27.7752C14.1231 27.7752 11.0232 25.613 8.99284 23.9155C7.8976 22.9732 6.8622 21.9608 5.8929 20.8844L3.91211 20.7733C6.77453 25.0224 10.9639 28.1566 15.7969 29.6645C16.6486 29.5231 19.0355 27.7853 20.8182 26.3707C22.9167 24.5338 24.8828 22.5449 26.7011 20.4197C27.1988 19.8246 27.5819 19.139 27.8302 18.3989C26.7407 18.793 25.988 19.1163 25.988 19.1163Z" fill="#F06351"/>
</g>
<defs>
<clipPath id="clip0_302_1165">
<rect width="33" height="38" fill="white"/>
</clipPath>
</defs>
</svg>
