<svg width="118" height="21" viewBox="0 0 118 21" fill="none" xmlns="http://www.w3.org/2000/svg">
<path d="M1.42351 19.2159C0.391283 17.7277 -0.102273 15.9474 0.0207226 14.156V6.84405C-0.109487 5.03944 0.376607 3.24353 1.40346 1.73542C2.33197 0.572011 3.91845 -0.00644536 6.16291 5.41628e-05C8.40736 0.00655368 9.92704 0.516766 10.722 1.53069C11.6912 2.78717 12.1642 4.3407 12.0546 5.90812V7.62399H7.90636V5.76188C7.90077 5.27192 7.85723 4.78307 7.77611 4.29949C7.72595 3.9494 7.56075 3.6245 7.30517 3.3733C7.1474 3.24166 6.96423 3.14195 6.76637 3.08001C6.56852 3.01807 6.35995 2.99515 6.15288 3.01258C5.8555 2.9694 5.55167 3.01643 5.28273 3.14726C5.0138 3.2781 4.79283 3.48638 4.6499 3.74378C4.38644 4.42844 4.27049 5.15851 4.30923 5.88862V15.1699C4.26352 15.9049 4.39743 16.6399 4.7 17.3148C4.84457 17.5582 5.05909 17.7553 5.31721 17.8817C5.57533 18.0082 5.86578 18.0585 6.15288 18.0265C6.435 18.0653 6.72251 18.0164 6.97441 17.8869C7.22631 17.7573 7.42973 17.5537 7.55567 17.305C7.79804 16.6191 7.90347 15.8944 7.86628 15.1699V13.2201H12.0145V14.9067C12.1366 16.4972 11.7023 18.0812 10.7821 19.4011C9.90032 20.4735 8.3773 21 6.21301 21C4.04871 21 2.35536 20.415 1.42351 19.2159Z" fill="#111111"/>
<path d="M17.7065 0.282715H22.4559L26.4639 20.7562H22.516L21.8046 16.2325H18.478L17.6764 20.727H13.6685L17.7065 0.282715ZM21.3638 13.6587L20.1013 5.43033L18.8488 13.6587H21.3638Z" fill="#111111"/>
<path d="M29.5405 3.36349H26.2941V0.282715H37.0354V3.36349H33.829V20.727H29.5305L29.5405 3.36349Z" fill="#111111"/>
<path d="M45.4631 0.282715H53.6093V2.40806H48.399V9.16431H52.6273V11.1824H48.399V18.6796H53.6594V20.727H45.4631V0.282715Z" fill="#444444"/>
<path d="M56.0246 0.282715H58.0286L64.0405 13.8635V0.282715H66.4854V20.7562H64.6116L58.5997 6.79523V20.727H56.1148L56.0246 0.282715Z" fill="#444444"/>
<path d="M69.7224 0.282715H77.8585V2.40806H72.6482V9.16431H76.9167V11.1824H72.6883V18.6796H77.9187V20.727H69.7224V0.282715Z" fill="#444444"/>
<path d="M80.2739 0.282741H84.5023C86.1686 0.152273 87.828 0.605198 89.1815 1.5599C90.1835 2.40808 90.6745 3.79248 90.6745 5.71309C90.6745 8.31289 89.8094 9.90203 88.0793 10.4805L91.0853 20.727H88.2397L85.4842 11.1337H83.2097V20.727H80.2739V0.282741ZM84.2818 9.05709C85.2471 9.14796 86.2123 8.8836 86.9872 8.31614C87.3021 7.95355 87.5374 7.53212 87.6787 7.07776C87.82 6.6234 87.8643 6.14572 87.8088 5.67409C87.8289 5.01266 87.7306 4.35286 87.5182 3.72424C87.4321 3.49245 87.299 3.27983 87.1269 3.09897C86.9548 2.91811 86.7471 2.77269 86.5162 2.67131C85.8658 2.41165 85.1643 2.29513 84.4622 2.33009H83.1696V9.09609L84.2818 9.05709Z" fill="#444444"/>
<path d="M94.623 19.2158C93.6652 17.6429 93.2214 15.8239 93.3505 14V7.17549C93.3159 5.85851 93.4848 4.54396 93.8515 3.27578C94.1409 2.32235 94.7559 1.49351 95.5949 0.926202C96.6079 0.332222 97.7805 0.0469922 98.9616 0.107263C99.7256 0.0365689 100.496 0.129067 101.22 0.378292C101.943 0.627517 102.602 1.02746 103.15 1.55016C104.111 2.8605 104.566 4.45934 104.432 6.06407V6.82452H101.677V6.19081C101.696 5.43287 101.635 4.67503 101.497 3.92898C101.405 3.45085 101.134 3.02315 100.735 2.72982C100.215 2.43114 99.6144 2.29185 99.0117 2.3301C98.3572 2.27562 97.7066 2.47146 97.1981 2.87606C96.7826 3.25971 96.5109 3.76765 96.4266 4.31895C96.2996 5.12203 96.2427 5.93411 96.2562 6.74652V14.3412C96.1767 15.4953 96.3793 16.6513 96.8474 17.7145C97.1193 18.0414 97.4644 18.3036 97.8564 18.4809C98.2483 18.6582 98.6768 18.746 99.1089 18.7375C99.5411 18.7291 99.9655 18.6246 100.35 18.432C100.734 18.2395 101.068 17.9641 101.326 17.6267C101.809 16.5022 102.018 15.2844 101.938 14.0682V12.6253H99.2722V10.6072H104.583V20.727H102.769L102.479 18.3774C102.249 19.158 101.755 19.8401 101.076 20.3127C100.398 20.7853 99.5746 21.0206 98.7412 20.9805C97.9575 21.0477 97.1691 20.9212 96.4492 20.6127C95.7292 20.3042 95.1011 19.8237 94.623 19.2158Z" fill="#444444"/>
<path d="M110.675 13.5125L106.136 0.282715H108.862L112.078 10.149L115.245 0.282715H118L113.491 13.5125V20.727H110.685L110.675 13.5125Z" fill="#444444"/>
</svg>
