<svg width="174" height="50" viewBox="0 0 174 50" fill="none" xmlns="http://www.w3.org/2000/svg">
<g clip-path="url(#clip0_0_466)">
<path d="M51.2082 19.0509C49.734 15.4473 47.3597 12.3007 44.3221 9.92487C41.2845 7.549 37.6896 6.02676 33.8957 5.50986C30.1017 4.99296 26.2413 5.49945 22.699 6.97886C19.1567 8.45826 16.0563 10.8589 13.7068 13.9416C11.3573 17.0242 9.84068 20.6812 9.30816 24.5481C8.77564 28.415 9.24578 32.3568 10.6717 35.9806C12.0977 39.6044 14.4296 42.7837 17.4352 45.2016C20.4408 47.6195 24.015 49.1915 27.8017 49.7612C27.3057 47.9377 26.8011 45.9224 26.3564 43.7849C27.6501 44.641 29.0118 45.3852 30.4271 46.0096C30.4271 46.0096 30.5298 47.8941 30.6666 49.9967C32.1959 50.0236 33.7237 49.8862 35.2247 49.5867C35.186 49.3674 35.186 49.1429 35.2247 48.9236C35.4727 47.2921 36.1569 44.352 36.2937 42.4588C37.28 41.5176 38.1167 40.4256 38.7738 39.222L38.7225 39.6058C38.2521 43.3225 37.2686 47.2921 36.67 48.3914C36.4762 48.7553 36.2377 49.0925 35.9602 49.3947C39.0558 48.6539 41.9564 47.235 44.461 45.2366C46.9656 43.2382 49.0141 40.7079 50.4647 37.8213C51.9152 34.9347 52.733 31.7608 52.8614 28.5196C52.9898 25.2784 52.4257 22.0475 51.2082 19.0509ZM49.9511 22.3575C49.5748 22.7326 48.7966 22.9856 48.6683 21.8515C48.54 20.7173 48.5058 19.9233 48.5058 19.9233C48.5058 19.9233 46.8553 16.9308 46.2396 16.8959C45.6238 16.861 41.2538 19.9233 40.0993 21.2582C39.0987 22.3837 38.9021 22.3051 38.9021 24.2856C38.9021 25.7775 39.0902 31.4135 38.9876 35.7234L32.0178 37.6166C29.8271 38.2581 27.5993 38.7592 25.3473 39.1173L24.4921 34.0309H24.3724L22.1746 22.5407C22.1746 22.5407 18.9163 21.2844 17.719 20.9441C17.1569 20.6932 16.5361 20.6116 15.9299 20.709C15.3238 20.8064 14.7576 21.0787 14.2983 21.4938C13.8297 21.9124 13.4549 22.4291 13.1996 23.0087C12.9443 23.5883 12.8144 24.2173 12.8188 24.8527C12.9996 25.2582 13.1372 25.6823 13.2293 26.1177C13.2721 26.5365 12.2031 26.4929 11.5189 26.4929C10.8348 26.4929 10.7322 25.2366 11.2709 23.7621C11.6912 22.6284 12.2122 21.5362 12.8274 20.4992C13.29 19.5728 13.8868 18.7228 14.5976 17.9778C14.5976 17.9778 14.7173 17.6812 15.6666 17.7684C16.6158 17.8556 21.8924 18.1435 21.8924 18.1435L21.9351 16.1631C27.6703 15.3552 33.4546 14.9645 39.2441 14.994C39.2441 15.5262 39.2441 16.0584 39.2441 16.5906C41.437 15.5696 43.7984 14.9778 46.2054 14.8457C46.3341 14.8424 46.4617 14.8717 46.5767 14.9311C46.6916 14.9905 46.7903 15.0781 46.8638 15.1859C47.1546 15.5611 48.9249 17.8033 49.1301 18.1261C49.705 18.9643 50.2277 19.8384 50.6951 20.7435C50.5349 21.3165 50.2835 21.8588 49.9511 22.3488V22.3575Z" fill="#FDC305"/>
<path d="M48.2839 17.0179C48.6859 17.5414 49.0365 18.0038 49.1391 18.1434C49.714 18.9816 50.2367 19.8557 50.7041 20.7608C50.5414 21.315 50.2931 21.8392 49.9687 22.3137C49.5924 22.6889 48.8142 22.9419 48.6859 21.8077C48.5576 20.6735 48.5063 19.9232 48.5063 19.9232C48.5063 19.9232 46.8558 16.9307 46.24 16.8958C45.6243 16.8609 41.2543 19.9232 40.0998 21.2581C39.0992 22.3835 38.9025 22.305 38.9025 24.2855C38.9025 25.5941 39.0479 30.0873 39.0137 34.0831C40.5616 34.2576 42.8364 34.6938 43.5205 35.7233C43.5205 35.7233 43.2725 29.4591 50.1996 32.7395C50.1996 32.7395 50.439 24.1982 60 26.3881C56.7498 22.4951 52.7655 19.3085 48.2839 17.0179Z" fill="#F06351"/>
<path d="M39.2788 14.994C39.3136 10.1595 38.9128 5.332 38.0815 0.572359C38.0815 0.572359 37.9533 -0.561827 37.3375 0.362971C36.8294 1.46856 36.4837 2.64443 36.3113 3.85277C32.6555 3.61347 28.986 3.71276 25.3478 4.14941C24.6465 1.75017 23.4493 0.659604 22.8763 0.947513C22.3033 1.23542 22.2349 3.80915 22.2349 3.80915L21.9527 16.1631C27.6936 15.3544 33.4836 14.9637 39.2788 14.994Z" fill="#F06351"/>
<path d="M38.7821 39.2218C38.8933 38.2883 38.9531 37.0494 38.9874 35.6797L32.0179 37.5729C29.8283 38.229 27.6005 38.7448 25.3478 39.1171L26.297 43.4794C26.297 43.5754 26.297 43.6713 26.3569 43.7673C27.6505 44.6234 29.0121 45.3676 30.4273 45.992C32.4957 44.9833 34.4656 43.7769 36.3107 42.3888V42.4412C37.2925 41.5047 38.1262 40.4187 38.7821 39.2218Z" fill="#E55645"/>
<path d="M27.366 12.2633C27.3233 12.1761 28.2212 12.8566 28.5718 13.0659C28.9224 13.2753 29.0934 13.4324 29.0934 13.5807C29.0934 13.729 28.8711 13.8773 28.5632 13.8773C28.2554 13.8773 27.7765 13.7726 27.7081 13.6505C27.6397 13.5283 28.2212 13.6505 28.5119 13.6505H28.7599C28.2334 13.2575 27.7642 12.7905 27.366 12.2633Z" fill="black"/>
<path d="M33.7799 12.3591C33.7799 12.3591 32.9247 13.4758 32.8478 13.5282C32.7708 13.5805 32.7024 13.8248 33.0103 13.7812C33.3637 13.7274 33.7125 13.6457 34.0535 13.5369C34.1476 13.4846 34.1134 13.3624 33.9509 13.3799C33.7884 13.3973 33.3694 13.4235 33.0958 13.4758L33.8227 12.3678C33.8227 12.3678 33.8483 12.2631 33.7799 12.3591Z" fill="black"/>
<path d="M31.0946 17.6898C31.491 17.5116 31.8186 17.2049 32.0267 16.8173C32.2661 16.2415 32.0267 16.0234 31.6504 15.9449C31.1328 15.8485 30.5986 15.9544 30.1539 16.2415C29.8204 16.5643 29.8632 16.8784 30.1539 17.114C30.4428 17.3451 30.7588 17.5385 31.0946 17.6898Z" fill="black"/>
<path d="M30.7866 18.7893C30.6884 18.9871 30.555 19.1646 30.3932 19.3127C30.1497 19.5126 29.8503 19.6287 29.5381 19.6443C29.0673 19.6914 28.5965 19.5542 28.2212 19.2604C28.0488 19.1575 27.8954 19.0246 27.7679 18.8678C27.6824 18.7727 27.5772 18.6982 27.4601 18.6497C27.4601 18.6497 28.1014 22.2354 29.6578 22.8112C31.2142 23.3871 31.5049 22.1482 31.5477 21.8167C31.5998 20.8237 31.3553 19.838 30.8465 18.9899C30.8465 18.7282 30.8294 18.9027 30.7866 18.7893Z" fill="#F06351"/>
<path d="M29.3328 19.7838C28.9326 19.7251 28.5483 19.5843 28.2029 19.3699C27.8575 19.1554 27.5583 18.8718 27.3233 18.5362C27.3022 18.5122 27.2906 18.4811 27.2906 18.4489C27.2906 18.4168 27.3022 18.3857 27.3233 18.3617C27.3344 18.3501 27.3477 18.3409 27.3624 18.3346C27.3771 18.3283 27.3928 18.325 27.4088 18.325C27.4247 18.325 27.4405 18.3283 27.4551 18.3346C27.4698 18.3409 27.4831 18.3501 27.4943 18.3617C27.7059 18.6646 27.9744 18.9216 28.2841 19.1178C28.5939 19.314 28.9387 19.4455 29.2986 19.5046C29.5834 19.4828 29.859 19.3923 30.1028 19.2406C30.3466 19.089 30.5517 18.8804 30.7011 18.6322L30.8208 18.4664L30.9063 18.6583C30.9063 18.6583 31.2313 19.3214 31.7615 19.3563C32.2916 19.3912 32.6679 18.9899 33.1553 18.2308C33.1735 18.2031 33.2017 18.1838 33.2338 18.1772C33.2659 18.1707 33.2992 18.1774 33.3264 18.1959C33.3536 18.2144 33.3725 18.2432 33.3789 18.276C33.3853 18.3087 33.3787 18.3427 33.3606 18.3704C32.7905 19.2254 32.2517 19.6355 31.7444 19.6006C31.5482 19.5741 31.3604 19.5031 31.1947 19.3929C31.029 19.2827 30.8895 19.136 30.7866 18.9637C30.6193 19.2021 30.402 19.3994 30.1505 19.5412C29.899 19.6831 29.6197 19.766 29.3328 19.7838Z" fill="black"/>
<path d="M31.009 31.527C32.78 31.527 34.2158 30.0622 34.2158 28.2553C34.2158 26.4484 32.78 24.9836 31.009 24.9836C29.2379 24.9836 27.8022 26.4484 27.8022 28.2553C27.8022 30.0622 29.2379 31.527 31.009 31.527Z" fill="#FDC305"/>
<path d="M35.259 25.5942L32.5824 26.7371L33.5658 21.8252L27.1522 30.3403L29.8288 29.1974L28.8454 34.118L35.259 25.5942ZM28.9395 28.9357L32.4969 24.2157L31.8042 27.7055L33.5145 26.9901L29.9314 31.7188L30.6241 28.229L28.9395 28.9357Z" fill="#111111"/>
<path d="M27.7422 27.6533C28.2712 27.6533 28.7 27.2158 28.7 26.6761C28.7 26.1365 28.2712 25.699 27.7422 25.699C27.2133 25.699 26.7845 26.1365 26.7845 26.6761C26.7845 27.2158 27.2133 27.6533 27.7422 27.6533Z" fill="#111111"/>
<path d="M33.3181 31.1954C33.6912 31.1954 33.9937 30.8868 33.9937 30.5061C33.9937 30.1255 33.6912 29.8169 33.3181 29.8169C32.945 29.8169 32.6425 30.1255 32.6425 30.5061C32.6425 30.8868 32.945 31.1954 33.3181 31.1954Z" fill="#111111"/>
<path d="M34.1391 29.3021C34.3044 29.3021 34.4384 29.1654 34.4384 28.9968C34.4384 28.8281 34.3044 28.6914 34.1391 28.6914C33.9738 28.6914 33.8398 28.8281 33.8398 28.9968C33.8398 29.1654 33.9738 29.3021 34.1391 29.3021Z" fill="#111111"/>
<path d="M39.236 16.5731C37.6923 17.9928 36.2384 19.511 34.8831 21.1185C33.5331 22.7145 32.0097 24.1487 30.3421 25.3935C30.1539 24.9311 28.9481 24.0674 28.9481 24.0674C28.9481 24.0674 26.2628 22.1916 24.5011 20.7172C23.5488 19.908 22.6516 19.0335 21.8158 18.0998L20.1055 18.0039C22.5744 21.6831 26.1915 24.4015 30.3677 25.7163C31.1032 25.5942 33.1727 24.0849 34.7206 22.8547C36.5519 21.2659 38.2669 19.5425 39.8518 17.6985C40.2778 17.182 40.6081 16.5907 40.8267 15.9536C39.8518 16.2851 39.236 16.5731 39.236 16.5731Z" fill="#F06351"/>
<path d="M22.175 22.5406C22.175 22.5406 18.9168 21.2842 17.7195 20.944C17.1573 20.6931 16.5365 20.6115 15.9304 20.7089C15.3243 20.8063 14.7581 21.0786 14.2987 21.4936C13.8301 21.9122 13.4554 22.4289 13.2001 23.0086C12.9448 23.5882 12.8149 24.2171 12.8193 24.8526C13 25.258 13.1377 25.6822 13.2298 26.1176C13.2725 26.5364 12.2035 26.4928 11.5194 26.4928C10.8352 26.4928 10.7326 25.2364 11.2714 23.762C11.6917 22.6282 12.2127 21.5361 12.8278 20.499C8.16705 22.9768 0 28.7001 0 28.7001C2.33611 28.5563 4.68014 28.6264 7.00399 28.9094C11.4937 29.3718 11.2799 32.9838 11.2799 32.9838C12.8591 32.5397 14.4684 32.216 16.0946 32.0154C17.9076 31.8932 18.0359 33.865 18.0359 33.865L18.4892 37.2326C19.1774 36.473 19.9364 35.7834 20.7554 35.1736C21.8111 34.3115 23.1553 33.9045 24.5011 34.0395L22.175 22.5406Z" fill="#F06351"/>
<path d="M74.2184 32.4708C73.3349 31.1952 72.9125 29.6692 73.0177 28.1337V21.8663C72.9063 20.3195 73.3223 18.7802 74.2013 17.4875C74.996 16.4903 76.3539 15.9945 78.275 16C80.1961 16.0056 81.4969 16.4429 82.1773 17.312C83.0069 18.389 83.4117 19.7206 83.3179 21.0641V22.5348H79.7673V20.9388C79.7625 20.5188 79.7253 20.0998 79.6558 19.6853C79.6129 19.3852 79.4715 19.1067 79.2527 18.8914C79.1177 18.7786 78.9609 18.6931 78.7916 18.64C78.6222 18.5869 78.4437 18.5673 78.2664 18.5822C78.0119 18.5452 77.7518 18.5855 77.5217 18.6977C77.2915 18.8098 77.1023 18.9883 76.98 19.209C76.7545 19.7958 76.6552 20.4216 76.6884 21.0474V29.0028C76.6493 29.6327 76.7639 30.2628 77.0229 30.8412C77.1466 31.0499 77.3302 31.2188 77.5512 31.3272C77.7721 31.4356 78.0207 31.4787 78.2664 31.4513C78.5079 31.4845 78.754 31.4427 78.9696 31.3316C79.1852 31.2206 79.3593 31.046 79.4671 30.8329C79.6746 30.2449 79.7648 29.6238 79.733 29.0028V27.3315H83.2836V28.7772C83.3881 30.1405 83.0164 31.4982 82.2287 32.6295C81.474 33.5487 80.1704 34 78.3179 34C76.4654 34 75.016 33.4986 74.2184 32.4708Z" fill="#111111"/>
<path d="M88.1555 16.2424H92.2207L95.6513 33.7911H92.2722L91.6633 29.9137H88.8159L88.1298 33.7661H84.6993L88.1555 16.2424ZM91.2859 27.7076L90.2053 20.6547L89.1332 27.7076H91.2859Z" fill="#111111"/>
<path d="M98.2848 18.8831H95.506V16.2424H104.7V18.8831H101.955V33.7661H98.2762L98.2848 18.8831Z" fill="#111111"/>
<path d="M111.913 16.2424H118.886V18.0642H114.426V23.8552H118.045V25.585H114.426V32.0112H118.929V33.7661H111.913V16.2424Z" fill="#444444"/>
<path d="M120.953 16.2424H122.669L127.814 27.8831V16.2424H129.907V33.7911H128.303L123.157 21.8246V33.7661H121.03L120.953 16.2424Z" fill="#444444"/>
<path d="M132.678 16.2424H139.642V18.0642H135.182V23.8552H138.836V25.585H135.216V32.0112H139.693V33.7661H132.678V16.2424Z" fill="#444444"/>
<path d="M141.709 16.2425H145.328C146.754 16.1307 148.175 16.5189 149.333 17.3372C150.191 18.0642 150.611 19.2508 150.611 20.8971C150.611 23.1255 149.871 24.4876 148.39 24.9834L150.963 33.7661H148.527L146.169 25.5433H144.222V33.7661H141.709V16.2425ZM145.14 23.7634C145.966 23.8412 146.792 23.6147 147.455 23.1283C147.725 22.8175 147.926 22.4562 148.047 22.0668C148.168 21.6773 148.206 21.2679 148.158 20.8636C148.176 20.2967 148.091 19.7312 147.91 19.1923C147.836 18.9937 147.722 18.8114 147.575 18.6564C147.427 18.5014 147.25 18.3767 147.052 18.2898C146.495 18.0673 145.895 17.9674 145.294 17.9974H144.188V23.7968L145.14 23.7634Z" fill="#444444"/>
<path d="M153.991 32.4708C153.171 31.1226 152.791 29.5634 152.902 28.0001V22.1505C152.872 21.0217 153.017 19.8949 153.33 18.8079C153.578 17.9907 154.105 17.2802 154.823 16.794C155.69 16.2848 156.693 16.0403 157.704 16.092C158.358 16.0314 159.018 16.1107 159.637 16.3243C160.256 16.5379 160.82 16.8807 161.289 17.3288C162.112 18.4519 162.501 19.8224 162.387 21.1978V21.8497H160.029V21.3065C160.045 20.6568 159.993 20.0072 159.874 19.3678C159.796 18.9579 159.564 18.5913 159.222 18.3399C158.777 18.0839 158.263 17.9645 157.747 17.9973C157.187 17.9506 156.63 18.1185 156.195 18.4653C155.839 18.7941 155.607 19.2295 155.535 19.702C155.426 20.3904 155.377 21.0864 155.389 21.7828V28.2925C155.321 29.2817 155.494 30.2726 155.895 31.1839C156.128 31.4641 156.423 31.6888 156.758 31.8408C157.094 31.9928 157.461 32.0681 157.831 32.0608C158.2 32.0535 158.564 31.964 158.893 31.799C159.222 31.6339 159.507 31.3978 159.728 31.1087C160.142 30.1448 160.321 29.101 160.252 28.0586V26.8218H157.97V25.092H162.516V33.7661H160.963L160.715 31.7521C160.518 32.4212 160.095 33.0058 159.514 33.4109C158.933 33.816 158.229 34.0177 157.516 33.9833C156.845 34.0409 156.17 33.9325 155.554 33.6681C154.938 33.4037 154.4 32.9918 153.991 32.4708Z" fill="#444444"/>
<path d="M167.731 27.5822L163.846 16.2424H166.178L168.931 24.6992L171.642 16.2424H174L170.141 27.5822V33.7661H167.739L167.731 27.5822Z" fill="#444444"/>
</g>
<defs>
<clipPath id="clip0_0_466">
<rect width="174" height="50" fill="white"/>
</clipPath>
</defs>
</svg>
