<svg width="202" height="59" viewBox="0 0 202 59" fill="none" xmlns="http://www.w3.org/2000/svg">
<g clip-path="url(#clip0_0_313)">
<path d="M59.7434 23.8063C58.0235 19.7091 55.2535 16.1317 51.7097 13.4304C48.1658 10.7292 43.9717 8.9985 39.5455 8.41081C35.1192 7.82313 30.6153 8.39898 26.4827 10.081C22.35 11.763 18.7329 14.4924 15.9918 17.9972C13.2507 21.502 11.4814 25.6599 10.8601 30.0563C10.2388 34.4528 10.7873 38.9344 12.4509 43.0544C14.1145 47.1745 16.8351 50.7891 20.3416 53.5382C23.8482 56.2872 28.0181 58.0746 32.4359 58.7222C31.8572 56.6491 31.2685 54.3577 30.7497 51.9275C32.259 52.9008 33.8476 53.7469 35.4989 54.4569C35.4989 54.4569 35.6186 56.5995 35.7782 58.99C37.5624 59.0206 39.3448 58.8643 41.0961 58.5238C41.0508 58.2745 41.0508 58.0192 41.0961 57.7699C41.3854 55.915 42.1836 52.5722 42.3432 50.4197C43.4939 49.3497 44.47 48.1082 45.2366 46.7397L45.1767 47.1761C44.628 51.4017 43.4806 55.915 42.7822 57.1649C42.5561 57.5786 42.2778 57.9619 41.9541 58.3056C45.5656 57.4633 48.9497 55.8501 51.8717 53.578C54.7937 51.3059 57.1837 48.4291 58.876 45.1472C60.5683 41.8653 61.5224 38.2567 61.6722 34.5716C61.822 30.8866 61.1638 27.2132 59.7434 23.8063ZM58.2768 27.5657C57.8378 27.9922 56.9299 28.2799 56.7802 26.9903C56.6305 25.7008 56.5906 24.7982 56.5906 24.7982C56.5906 24.7982 54.665 21.3959 53.9467 21.3562C53.2283 21.3165 48.13 24.7982 46.7831 26.3158C45.6157 27.5954 45.3863 27.5062 45.3863 29.7578C45.3863 31.454 45.6058 37.8619 45.486 42.762L37.3546 44.9145C34.7988 45.6438 32.1997 46.2136 29.5724 46.6206L28.5747 40.8377H28.435L25.8709 27.774C25.8709 27.774 22.0696 26.3456 20.6728 25.9587C20.0169 25.6735 19.2926 25.5807 18.5855 25.6915C17.8783 25.8022 17.2178 26.1118 16.6819 26.5837C16.1352 27.0596 15.698 27.6471 15.4001 28.3061C15.1023 28.9651 14.9507 29.6801 14.9558 30.4026C15.1667 30.8636 15.3273 31.3458 15.4347 31.8409C15.4846 32.317 14.2375 32.2674 13.4393 32.2674C12.6411 32.2674 12.5214 30.839 13.15 29.1627C13.6403 27.8737 14.2482 26.6319 14.9658 25.4529C15.5056 24.3996 16.2018 23.4333 17.0311 22.5862C17.0311 22.5862 17.1708 22.2489 18.2782 22.3481C19.3857 22.4473 25.5416 22.7746 25.5416 22.7746L25.5915 20.523C32.2826 19.6045 39.0309 19.1603 45.7853 19.1938C45.7853 19.7989 45.7853 20.4039 45.7853 21.009C48.3438 19.8483 51.0986 19.1753 53.9068 19.0251C54.057 19.0214 54.2059 19.0547 54.34 19.1223C54.474 19.1898 54.5892 19.2893 54.675 19.412C55.0142 19.8385 57.0795 22.3878 57.319 22.7548C57.9896 23.7078 58.5995 24.7016 59.1448 25.7306C58.9579 26.3821 58.6646 26.9987 58.2768 27.5557V27.5657Z" fill="#FDC305"/>
<path d="M56.3313 21.4952C56.8002 22.0903 57.2093 22.616 57.329 22.7748C57.9997 23.7277 58.6095 24.7216 59.1548 25.7505C58.965 26.3807 58.6753 26.9767 58.2968 27.5162C57.8578 27.9427 56.9499 28.2304 56.8002 26.9409C56.6505 25.6513 56.5907 24.7983 56.5907 24.7983C56.5907 24.7983 54.6651 21.396 53.9467 21.3563C53.2284 21.3166 48.13 24.7983 46.7831 26.3159C45.6158 27.5955 45.3863 27.5063 45.3863 29.7579C45.3863 31.2458 45.5559 36.3543 45.516 40.8973C47.3219 41.0957 49.9758 41.5917 50.774 42.7621C50.774 42.7621 50.4846 35.6401 58.5662 39.3697C58.5662 39.3697 58.8455 29.6587 70 32.1485C66.2081 27.7223 61.5597 24.0994 56.3313 21.4952Z" fill="#F06351"/>
<path d="M45.8252 19.1938C45.8658 13.6973 45.3982 8.20868 44.4284 2.79723C44.4284 2.79723 44.2787 1.50772 43.5604 2.55916C42.9676 3.81616 42.5642 5.15306 42.3631 6.52688C38.098 6.25481 33.8169 6.36769 29.5724 6.86414C28.7542 4.13633 27.3574 2.89642 26.689 3.22376C26.0205 3.55109 25.9407 6.47729 25.9407 6.47729L25.6114 20.523C32.3091 19.6036 39.0641 19.1594 45.8252 19.1938Z" fill="#F06351"/>
<path d="M45.2458 46.7396C45.3755 45.6783 45.4453 44.2697 45.4852 42.7124L37.3542 44.8649C34.7996 45.6109 32.2006 46.1973 29.5724 46.6206L30.6798 51.5803C30.6798 51.6894 30.6798 51.7985 30.7496 51.9076C32.2589 52.881 33.8474 53.7271 35.4985 54.437C37.9116 53.2902 40.2099 51.9185 42.3625 50.3403V50.3999C43.5079 49.3351 44.4805 48.1004 45.2458 46.7396Z" fill="#E55645"/>
<path d="M31.927 16.0891C31.8771 15.9899 32.9247 16.7636 33.3337 17.0016C33.7428 17.2397 33.9423 17.4182 33.9423 17.5869C33.9423 17.7555 33.6829 17.9241 33.3238 17.9241C32.9646 17.9241 32.4059 17.8051 32.3261 17.6662C32.2463 17.5274 32.9247 17.6662 33.2639 17.6662H33.5532C32.939 17.2195 32.3915 16.6885 31.927 16.0891Z" fill="black"/>
<path d="M39.4099 16.1981C39.4099 16.1981 38.4122 17.4678 38.3224 17.5273C38.2326 17.5869 38.1528 17.8646 38.512 17.815C38.9243 17.7538 39.3312 17.661 39.7291 17.5373C39.8389 17.4777 39.799 17.3389 39.6094 17.3587C39.4199 17.3785 38.931 17.4083 38.6117 17.4678L39.4598 16.2081C39.4598 16.2081 39.4897 16.089 39.4099 16.1981Z" fill="black"/>
<path d="M36.277 22.2589C36.7395 22.0564 37.1217 21.7077 37.3645 21.267C37.6438 20.6123 37.3645 20.3643 36.9255 20.2751C36.3216 20.1655 35.6983 20.2859 35.1796 20.6123C34.7905 20.9793 34.8404 21.3364 35.1796 21.6043C35.5166 21.867 35.8852 22.0869 36.277 22.2589Z" fill="black"/>
<path d="M35.9177 23.5088C35.8031 23.7338 35.6475 23.9356 35.4587 24.104C35.1746 24.3312 34.8253 24.4632 34.4611 24.4809C33.9118 24.5345 33.3626 24.3785 32.9247 24.0444C32.7236 23.9275 32.5446 23.7764 32.3959 23.5981C32.2961 23.49 32.1734 23.4053 32.0367 23.3501C32.0367 23.3501 32.785 27.4269 34.6008 28.0816C36.4165 28.7363 36.7557 27.3277 36.8056 26.9508C36.8664 25.8219 36.5811 24.7012 35.9875 23.7369C35.9875 23.4394 35.9676 23.6378 35.9177 23.5088Z" fill="#F06351"/>
<path d="M34.2216 24.6396C33.7547 24.5729 33.3062 24.4128 32.9033 24.169C32.5003 23.9252 32.1512 23.6028 31.8771 23.2212C31.8525 23.1939 31.839 23.1586 31.839 23.122C31.839 23.0854 31.8525 23.0501 31.8771 23.0228C31.8901 23.0096 31.9056 22.9991 31.9227 22.992C31.9399 22.9848 31.9582 22.9811 31.9768 22.9811C31.9954 22.9811 32.0138 22.9848 32.0309 22.992C32.0481 22.9991 32.0636 23.0096 32.0766 23.0228C32.3235 23.3672 32.6367 23.6594 32.9981 23.8824C33.3594 24.1055 33.7617 24.255 34.1817 24.3222C34.5139 24.2974 34.8354 24.1946 35.1199 24.0221C35.4043 23.8497 35.6435 23.6126 35.8179 23.3303L35.9575 23.1418L36.0573 23.3601C36.0573 23.3601 36.4364 24.1139 37.055 24.1536C37.6735 24.1933 38.1125 23.737 38.6812 22.874C38.7023 22.8424 38.7353 22.8205 38.7727 22.8131C38.8101 22.8056 38.849 22.8133 38.8807 22.8343C38.9125 22.8554 38.9345 22.8881 38.942 22.9253C38.9495 22.9625 38.9418 23.0011 38.9206 23.0327C38.2555 24.0048 37.627 24.471 37.035 24.4313C36.8062 24.4012 36.5871 24.3205 36.3938 24.1952C36.2004 24.0699 36.0377 23.9032 35.9176 23.7072C35.7224 23.9782 35.4689 24.2026 35.1755 24.3639C34.8821 24.5252 34.5562 24.6194 34.2216 24.6396Z" fill="black"/>
<path d="M36.1771 37.991C38.2433 37.991 39.9183 36.3256 39.9183 34.2713C39.9183 32.2169 38.2433 30.5515 36.1771 30.5515C34.1108 30.5515 32.4358 32.2169 32.4358 34.2713C32.4358 36.3256 34.1108 37.991 36.1771 37.991Z" fill="#FDC305"/>
<path d="M41.1355 31.2458L38.0128 32.5453L39.1601 26.9607L31.6776 36.6419L34.8003 35.3425L33.653 40.937L41.1355 31.2458ZM33.7627 35.0449L37.913 29.6786L37.1049 33.6463L39.1002 32.8329L34.92 38.2092L35.7281 34.2415L33.7627 35.0449Z" fill="#111111"/>
<path d="M32.3659 33.5867C32.983 33.5867 33.4833 33.0893 33.4833 32.4757C33.4833 31.8621 32.983 31.3647 32.3659 31.3647C31.7488 31.3647 31.2485 31.8621 31.2485 32.4757C31.2485 33.0893 31.7488 33.5867 32.3659 33.5867Z" fill="#111111"/>
<path d="M38.8711 37.6139C39.3064 37.6139 39.6592 37.263 39.6592 36.8303C39.6592 36.3975 39.3064 36.0466 38.8711 36.0466C38.4358 36.0466 38.0829 36.3975 38.0829 36.8303C38.0829 37.263 38.4358 37.6139 38.8711 37.6139Z" fill="#111111"/>
<path d="M39.8289 35.4614C40.0217 35.4614 40.178 35.306 40.178 35.1143C40.178 34.9225 40.0217 34.7671 39.8289 34.7671C39.636 34.7671 39.4797 34.9225 39.4797 35.1143C39.4797 35.306 39.636 35.4614 39.8289 35.4614Z" fill="#111111"/>
<path d="M45.7753 20.9892C43.9742 22.6033 42.278 24.3294 40.6969 26.1571C39.1219 27.9717 37.3445 29.6023 35.399 31.0176C35.1795 30.4919 33.7727 29.5099 33.7727 29.5099C33.7727 29.5099 30.6399 27.3772 28.5846 25.7008C27.4735 24.7808 26.4268 23.7866 25.4517 22.7251L23.4563 22.6159C26.3368 26.7991 30.5566 29.8897 35.4289 31.3846C36.287 31.2457 38.7014 29.5297 40.5073 28.1311C42.6438 26.3247 44.6446 24.3653 46.4936 22.2688C46.9906 21.6815 47.376 21.0093 47.631 20.2849C46.4936 20.6618 45.7753 20.9892 45.7753 20.9892Z" fill="#F06351"/>
<path d="M65.0707 3.47176L56.6304 12.8356L55.4133 10.8616L63.5443 0L65.0707 3.47176Z" fill="#FDC305"/>
<path d="M62.507 17.1206L68.0341 13.0438L67.2559 9.33398L61.8685 14.1052L62.507 17.1206Z" fill="#FDC305"/>
<path d="M59.7833 48.9715L65.899 52.1258L68.902 49.8047L62.2276 47.0769L59.7833 48.9715Z" fill="#FDC305"/>
<path d="M1.9454 5.92175L5.00825 2.58887L14.2766 11.5162L13.0594 13.7778L1.9454 5.92175Z" fill="#FDC305"/>
<path d="M7.36284 16.1487L2.67379 13.0439L0.279388 16.8827L5.41739 19.2633L7.36284 16.1487Z" fill="#FDC305"/>
<path d="M13.878 52.126L9.33865 55.4489L12.1321 59.0001L16.1428 55.0125L13.878 52.126Z" fill="#FDC305"/>
<path d="M25.8708 27.774C25.8708 27.774 22.0695 26.3456 20.6727 25.9588C20.0169 25.6735 19.2926 25.5808 18.5855 25.6915C17.8783 25.8022 17.2178 26.1118 16.6819 26.5837C16.1351 27.0596 15.6979 27.6471 15.4001 28.3061C15.1022 28.9651 14.9507 29.6802 14.9558 30.4026C15.1667 30.8636 15.3273 31.3458 15.4347 31.8409C15.4846 32.317 14.2374 32.2674 13.4393 32.2674C12.6411 32.2674 12.5214 30.8391 13.1499 29.1627C13.6403 27.8737 14.2481 26.6319 14.9658 25.4529C9.52821 28.27 0 34.777 0 34.777C2.72546 34.6136 5.46016 34.6933 8.17132 35.0151C13.4093 35.5408 13.1599 39.6474 13.1599 39.6474C15.0022 39.1424 16.8798 38.7744 18.7771 38.5464C20.8922 38.4075 21.0419 40.6492 21.0419 40.6492L21.5707 44.4781C22.3736 43.6144 23.2591 42.8304 24.2146 42.1371C25.4463 41.1569 27.0145 40.6942 28.5846 40.8476L25.8708 27.774Z" fill="#F06351"/>
<path d="M85.4235 38.2159C84.3913 36.7277 83.8977 34.9474 84.0207 33.156V25.844C83.8905 24.0394 84.3766 22.2435 85.4035 20.7354C86.332 19.572 87.9185 18.9936 90.1629 19.0001C92.4074 19.0066 93.927 19.5168 94.722 20.5307C95.6912 21.7872 96.1642 23.3407 96.0546 24.9081V26.624H91.9064V24.7619C91.9008 24.2719 91.8572 23.7831 91.7761 23.2995C91.726 22.9494 91.5607 22.6245 91.3052 22.3733C91.1474 22.2417 90.9642 22.1419 90.7664 22.08C90.5685 22.0181 90.36 21.9951 90.1529 22.0126C89.8555 21.9694 89.5517 22.0164 89.2827 22.1473C89.0138 22.2781 88.7928 22.4864 88.6499 22.7438C88.3864 23.4284 88.2705 24.1585 88.3092 24.8886V34.1699C88.2635 34.9049 88.3974 35.6399 88.7 36.3148C88.8446 36.5582 89.0591 36.7553 89.3172 36.8817C89.5753 37.0082 89.8658 37.0585 90.1529 37.0265C90.435 37.0653 90.7225 37.0164 90.9744 36.8869C91.2263 36.7573 91.4297 36.5537 91.5557 36.305C91.798 35.6191 91.9035 34.8944 91.8663 34.1699V32.2201H96.0145V33.9067C96.1366 35.4972 95.7023 37.0812 94.7821 38.4011C93.9003 39.4735 92.3773 40 90.213 40C88.0487 40 86.3554 39.415 85.4235 38.2159Z" fill="#111111"/>
<path d="M101.707 19.2827H106.456L110.464 39.7562H106.516L105.805 35.2325H102.478L101.676 39.727H97.6685L101.707 19.2827ZM105.364 32.6587L104.101 24.4303L102.849 32.6587H105.364Z" fill="#111111"/>
<path d="M113.541 22.3635H110.294V19.2827H121.035V22.3635H117.829V39.727H113.531L113.541 22.3635Z" fill="#111111"/>
<path d="M129.463 19.2827H137.609V21.4081H132.399V28.1643H136.627V30.1824H132.399V37.6796H137.659V39.727H129.463V19.2827Z" fill="#444444"/>
<path d="M140.025 19.2827H142.029L148.04 32.8635V19.2827H150.485V39.7562H148.612L142.6 25.7952V39.727H140.115L140.025 19.2827Z" fill="#444444"/>
<path d="M153.722 19.2827H161.859V21.4081H156.648V28.1643H160.917V30.1824H156.688V37.6796H161.919V39.727H153.722V19.2827Z" fill="#444444"/>
<path d="M164.274 19.2827H168.502C170.169 19.1523 171.828 19.6052 173.182 20.5599C174.184 21.4081 174.674 22.7925 174.674 24.7131C174.674 27.3129 173.809 28.902 172.079 29.4805L175.085 39.727H172.24L169.484 30.1337H167.21V39.727H164.274V19.2827ZM168.282 28.0571C169.247 28.148 170.212 27.8836 170.987 27.3161C171.302 26.9536 171.537 26.5321 171.679 26.0778C171.82 25.6234 171.864 25.1457 171.809 24.6741C171.829 24.0127 171.731 23.3529 171.518 22.7242C171.432 22.4924 171.299 22.2798 171.127 22.099C170.955 21.9181 170.747 21.7727 170.516 21.6713C169.866 21.4117 169.164 21.2951 168.462 21.3301H167.17V28.0961L168.282 28.0571Z" fill="#444444"/>
<path d="M178.623 38.2158C177.665 36.6429 177.221 34.8239 177.35 33V26.1755C177.316 24.8585 177.485 23.544 177.851 22.2758C178.141 21.3224 178.756 20.4935 179.595 19.9262C180.608 19.3322 181.781 19.047 182.962 19.1073C183.726 19.0366 184.496 19.1291 185.22 19.3783C185.943 19.6275 186.602 20.0275 187.15 20.5502C188.111 21.8605 188.566 23.4593 188.432 25.0641V25.8245H185.677V25.1908C185.696 24.4329 185.635 23.675 185.497 22.929C185.405 22.4508 185.134 22.0232 184.735 21.7298C184.215 21.4311 183.614 21.2918 183.012 21.3301C182.357 21.2756 181.707 21.4715 181.198 21.8761C180.783 22.2597 180.511 22.7677 180.427 23.319C180.3 24.122 180.243 24.9341 180.256 25.7465V33.3412C180.177 34.4953 180.379 35.6513 180.847 36.7145C181.119 37.0414 181.464 37.3036 181.856 37.4809C182.248 37.6582 182.677 37.746 183.109 37.7375C183.541 37.7291 183.966 37.6246 184.35 37.432C184.734 37.2395 185.068 36.9641 185.326 36.6267C185.809 35.5022 186.018 34.2844 185.938 33.0682V31.6253H183.272V29.6072H188.583V39.727H186.769L186.479 37.3774C186.249 38.158 185.755 38.8401 185.076 39.3127C184.398 39.7853 183.575 40.0206 182.741 39.9805C181.958 40.0477 181.169 39.9212 180.449 39.6127C179.729 39.3042 179.101 38.8237 178.623 38.2158Z" fill="#444444"/>
<path d="M194.675 32.5125L190.136 19.2827H192.862L196.078 29.149L199.245 19.2827H202L197.491 32.5125V39.727H194.685L194.675 32.5125Z" fill="#444444"/>
</g>
<defs>
<clipPath id="clip0_0_313">
<rect width="202" height="59" fill="white"/>
</clipPath>
</defs>
</svg>
