<svg width="28" height="22" viewBox="0 0 28 22" fill="none" xmlns="http://www.w3.org/2000/svg">
<path d="M1 5.33879C1 4.48376 1.5151 4.02271 2.54531 3.95565L6.51515 3.9808C6.78158 3.9808 6.95921 4.10654 7.04802 4.35802C7.45655 5.61542 7.91392 6.70097 8.42014 7.61468C8.92637 8.52838 9.58801 9.58041 10.4051 10.7707C10.4761 10.9216 10.5916 10.9971 10.7514 10.9971C10.8758 10.9971 10.9735 10.9384 11.0445 10.821L11.1244 10.5444L11.1511 6.19382C11.1511 5.89204 11.0756 5.69086 10.9246 5.59027C10.7736 5.48968 10.4939 5.41423 10.0853 5.36394C9.76563 5.31364 9.60577 5.12922 9.60577 4.81068C9.60577 4.74362 9.61465 4.69332 9.63241 4.65979C10.0054 3.57005 11.0711 3.02518 12.8296 3.02518L14.3216 3.00003C14.9966 3.00003 15.5561 3.1593 16.0001 3.47784C16.4442 3.79638 16.6662 4.29934 16.6662 4.98672V10.6953C16.7906 10.7791 16.906 10.821 17.0126 10.821C17.279 10.821 17.5099 10.6701 17.7053 10.3684C19.6592 7.78652 20.716 6.0597 20.8759 5.1879C20.8759 5.17113 20.8936 5.12922 20.9291 5.06216C21.0535 4.81068 21.2577 4.59273 21.5419 4.40831C21.8261 4.2239 22.0748 4.09816 22.288 4.0311C22.359 3.99757 22.4389 3.9808 22.5277 3.9808H26.6574L26.9239 4.00595C27.2791 4.00595 27.5544 4.16522 27.7498 4.48376C27.8209 4.58435 27.8697 4.69332 27.8964 4.81068C27.923 4.92804 27.9408 5.0454 27.9496 5.16275C27.9585 5.28011 27.963 5.34717 27.963 5.36394V5.53997C27.8386 6.22735 27.5233 6.96083 27.0171 7.74042C26.5109 8.52 25.867 9.36246 25.0855 10.2678C24.304 11.1731 23.8155 11.7683 23.6201 12.0533C23.4603 12.2545 23.3803 12.4389 23.3803 12.6065C23.3803 12.7407 23.4514 12.8915 23.5935 13.0592L27.4834 17.6864C27.6965 17.9547 27.8031 18.2481 27.8031 18.5666C27.8031 18.9522 27.6432 19.2707 27.3235 19.5222C27.0038 19.7737 26.6219 19.9162 26.1779 19.9497L25.7249 19.9749H21.6752C21.6574 19.9749 21.6219 19.9791 21.5686 19.9875C21.5153 19.9958 21.4798 20 21.462 20C21.0712 20 20.7071 19.8408 20.3696 19.5222C20.2453 19.3881 19.4105 18.3989 17.8652 16.5548C17.7764 16.4374 17.652 16.3284 17.4922 16.2278C17.4211 16.4961 17.3279 16.8817 17.2124 17.3846C17.097 17.8876 17.0126 18.2481 16.9593 18.466L16.8794 18.8935C16.7018 19.4803 16.3287 19.8324 15.7604 19.9497L15.3874 19.9749H12.7763C11.3021 19.9749 9.83224 19.3378 8.36686 18.0636C6.90148 16.7895 5.58264 15.1423 4.41034 13.1221C3.23803 11.1019 2.14566 8.75052 1.13322 6.06808C1.04441 5.85013 1 5.60703 1 5.33879ZM17.0126 11.8521C16.6396 11.8521 16.3021 11.7557 16.0001 11.5629C15.6982 11.3701 15.5472 11.106 15.5472 10.7707V4.98672C15.5472 4.65141 15.4584 4.41251 15.2808 4.27C15.1032 4.1275 14.7923 4.05624 14.3483 4.05624L12.8296 4.10654C12.0658 4.10654 11.4886 4.23228 11.0978 4.48376C11.8793 4.83583 12.2701 5.40585 12.2701 6.19382V10.6199C12.2346 11.039 12.0569 11.3869 11.7372 11.6635C11.4175 11.9401 11.0623 12.0784 10.6715 12.0784C10.1386 12.0784 9.7301 11.8353 9.44591 11.3491C8.06046 9.37084 7.03025 7.49313 6.35529 5.71601L6.1155 5.06216L2.57195 5.03701C2.34104 5.03701 2.21227 5.04959 2.18562 5.07473C2.15898 5.09988 2.14566 5.17114 2.14566 5.28849C2.14566 5.43938 2.16342 5.59865 2.19895 5.7663L2.75845 7.17459C4.25048 10.8127 5.87127 13.6795 7.62085 15.7752C9.37042 17.8708 11.0889 18.9187 12.7763 18.9187H15.4406C15.5472 18.9187 15.6271 18.8893 15.6804 18.8307C15.7337 18.772 15.7781 18.6588 15.8136 18.4912L15.8669 18.2397L16.3732 16.0267C16.5152 15.7249 16.6396 15.5237 16.7462 15.4231C16.9415 15.2387 17.1725 15.1465 17.4389 15.1465C17.8652 15.1465 18.3003 15.3896 18.7444 15.8758L21.0091 18.5917C21.1512 18.8097 21.3022 18.9187 21.462 18.9187H25.8581C26.391 18.9187 26.6574 18.7929 26.6574 18.5415C26.6574 18.4576 26.6308 18.3738 26.5775 18.29L22.7142 13.7382C22.4123 13.3861 22.2613 13.0089 22.2613 12.6065C22.2613 12.2042 22.4034 11.8186 22.6876 11.4497C22.9185 11.1144 23.367 10.557 24.0331 9.7774C24.6992 8.99781 25.2809 8.26852 25.7782 7.58953C26.2756 6.91053 26.6042 6.29441 26.764 5.74115L26.8439 5.41423C26.8262 5.3807 26.8173 5.32621 26.8173 5.25077C26.8173 5.17533 26.8084 5.11246 26.7907 5.06216H22.6077C22.3412 5.16275 22.1281 5.31364 21.9682 5.51482L21.8084 5.99263C21.3643 7.14944 20.2009 8.93494 18.3181 11.3491C17.9451 11.6844 17.5099 11.8521 17.0126 11.8521Z" fill="#666666"/>
</svg>
